PathFileType	4	(X/Y/Z)	C:/Users/opensim2020/Desktop/walking_exp_matlab/subject02_walking06_straight_02.trc	
DataRate	CameraRate	NumFrames	NumMarkers	Units	OrigDataRate	OrigDataStartFrame	OrigNumFrames	
100.00	100.00	4	41	mm	100.00	1477	183	
Frame#	Time	LFHD			RFHD			LBHD			RBHD			C7			T10			CLAV			STRN			RBAK			LSHO			LUPA			LELB			LFRM			LWRA			LWRB			LFIN			RSHO			RUPA			RELB			RFRM			RWRA			RWRB			RFIN			LASI			RASI			LPSI			RPSI			LTHI			LKNE			LTIB			LANK			LHEE			LTOE			RTHI			RKNE			RTIB			RANK			RHEE			RTOE			*39			*40			
		X1	Y1	Z1	X2	Y2	Z2	X3	Y3	Z3	X4	Y4	Z4	X5	Y5	Z5	X6	Y6	Z6	X7	Y7	Z7	X8	Y8	Z8	X9	Y9	Z9	X10	Y10	Z10	X11	Y11	Z11	X12	Y12	Z12	X13	Y13	Z13	X14	Y14	Z14	X15	Y15	Z15	X16	Y16	Z16	X17	Y17	Z17	X18	Y18	Z18	X19	Y19	Z19	X20	Y20	Z20	X21	Y21	Z21	X22	Y22	Z22	X23	Y23	Z23	X24	Y24	Z24	X25	Y25	Z25	X26	Y26	Z26	X27	Y27	Z27	X28	Y28	Z28	X29	Y29	Z29	X30	Y30	Z30	X31	Y31	Z31	X32	Y32	Z32	X33	Y33	Z33	X34	Y34	Z34	X35	Y35	Z35	X36	Y36	Z36	X37	Y37	Z37	X38	Y38	Z38	X39	Y39	Z39	X40	Y40	Z40	X41	Y41	Z41	

46	0.450	-922.03577	304.26315	1748.03174	-1065.80249	305.08154	1736.79102	-915.44391	428.13248	1661.74365	-1058.16199	440.66644	1647.74609	-993.89014	475.75946	1527.33838	-1004.09528	522.09601	1250.33850	-989.74432	335.11514	1461.17944	-1010.23157	278.50848	1291.37878	-1062.74255	532.25305	1354.49573	-816.36938	397.87463	1492.84863	-740.60413	399.15097	1287.29504	-734.92932	394.86688	1146.20837	-726.67096	376.82050	1015.91241	-764.47083	316.07990	894.25464	-727.91345	359.41205	894.35077	-725.48895	336.22281	832.26428	-1182.68372	403.85623	1503.95044	-1277.96130	424.03781	1318.02258	-1310.33984	392.22760	1175.36914	-1328.74866	337.05896	1066.64233	-1304.02515	265.25519	952.67346	-1343.20203	304.81876	941.01086	-1339.35718	255.45712	887.19910	-887.44763	272.03519	995.41620	-1142.57593	301.93860	972.86713	-943.03540	489.68518	1038.78772	-1056.71899	507.28006	1033.58472	-836.00336	307.88605	683.47858	-873.14374	329.35553	480.42892	-877.48962	377.53439	290.11478	-926.81744	370.86404	71.17947	-978.58911	408.03586	44.63330	-921.33575	214.04018	35.31634	-1217.59485	382.93237	670.59564	-1213.49622	377.79053	473.17529	-1196.70154	526.93158	369.21002	-1147.13062	663.07343	239.08395	-1076.67542	703.70789	216.76186	-1196.82764	624.98090	89.62446	-1007.23035	412.82886	1808.89136	-3357.26636	2845.79004	1033.95056 
47	0.460	-921.89594	294.22900	1748.76685	-1065.41687	295.51785	1737.67993	-914.86713	418.36520	1662.84900	-1058.01563	431.27383	1648.88025	-992.85529	465.91977	1528.36340	-1002.45288	512.46191	1251.34644	-989.15918	325.39600	1462.02551	-1009.39569	269.07632	1292.08740	-1060.67737	522.71655	1355.20703	-815.63281	387.27200	1494.43030	-739.32581	385.00290	1288.87109	-732.99036	378.57132	1147.94141	-725.82184	356.15109	1017.72345	-764.88647	292.40106	898.66571	-727.74847	335.16559	896.90045	-725.60577	309.82126	835.86218	-1181.75342	394.70828	1504.41638	-1276.73694	416.32608	1318.57397	-1308.67798	386.03088	1175.52234	-1326.64233	332.36020	1065.95691	-1301.97620	262.38757	950.97601	-1341.21289	302.02621	939.92468	-1337.06116	253.56334	885.14465	-886.56635	263.21173	995.42004	-1141.91638	292.96265	974.68329	-941.87732	480.55325	1039.74194	-1055.39063	498.17801	1034.71814	-835.48615	303.24081	683.09839	-872.54590	327.43207	480.28067	-877.39160	376.97617	290.31445	-927.18195	370.80795	71.11264	-978.79913	407.87784	44.74565	-921.14606	213.97029	35.30321	-1217.65442	367.80136	672.14374	-1212.73376	358.69485	474.94830	-1195.50146	505.90692	368.77396	-1146.37549	639.63245	235.81032	-1076.16272	680.19897	211.43172	-1197.89758	597.01953	88.62283	-1006.96234	403.16269	1809.88623	-3360.32080	2845.22339	1033.80457 
48	0.470	-921.67712	284.41833	1749.70007	-1065.25562	285.96713	1738.40588	-914.35663	408.56320	1663.68872	-1057.53259	421.67233	1649.61926	-991.91711	456.17905	1529.22925	-1000.90021	502.98096	1252.31750	-988.62872	315.65240	1462.76367	-1008.60126	259.69852	1292.70398	-1059.36536	513.57373	1355.88708	-814.93005	376.56799	1495.76660	-738.25757	371.65509	1290.68372	-731.43799	361.67282	1149.77637	-724.95776	335.60336	1020.06708	-765.04645	268.32910	903.43494	-727.69757	311.08524	899.98254	-725.61279	283.29367	840.05951	-1181.17834	385.66547	1504.97461	-1275.52930	408.65024	1318.98352	-1307.15369	379.93637	1175.59705	-1325.05664	327.89044	1065.33838	-1299.91736	259.50296	949.28986	-1339.26050	299.25958	938.82941	-1334.88403	251.70686	883.25525	-885.49554	254.51588	995.49268	-1140.95459	283.72867	976.40173	-940.92151	471.55161	1040.52869	-1054.45581	489.10229	1035.68420	-834.92383	298.94986	682.73041	-872.02606	325.50708	480.20084	-877.30750	376.35867	290.58347	-927.28436	370.71136	71.17066	-978.92822	407.82974	44.84489	-921.05225	213.91220	35.22927	-1217.73413	352.82129	673.72174	-1211.98694	339.83975	476.74588	-1194.49243	484.89014	367.74939	-1145.75366	615.60876	231.56686	-1075.95313	656.16547	205.06018	-1198.91797	567.68927	87.04087	-1006.45337	393.52936	1810.55530	-3360.27002	2845.15210	1033.79102 
49	0.480	-921.41498	274.88171	1750.54504	-1065.15747	276.37750	1738.95715	-913.88098	398.62192	1664.44080	-1056.57556	411.83008	1649.86316	-990.97742	446.46118	1529.92615	-999.33508	493.49167	1253.18005	-988.25134	305.94669	1463.39978	-1007.80560	250.28198	1293.13867	-1057.23328	504.01184	1356.52124	-814.42706	365.92288	1496.99133	-736.87335	358.19498	1292.66870	-729.74744	345.11246	1151.62537	-723.85443	314.94980	1022.47388	-765.24957	244.86830	908.40259	-727.50116	287.39313	903.31244	-725.83496	256.90591	844.76556	-1180.42944	376.62009	1505.26831	-1274.53870	401.02557	1319.35535	-1305.70496	373.95886	1175.58997	-1323.28577	323.30447	1064.80713	-1297.99280	256.67856	947.65247	-1337.29382	296.35962	937.66016	-1332.88782	249.75676	881.46057	-884.28595	246.16920	995.61688	-1139.61768	274.33212	978.04645	-940.20984	462.67673	1041.15405	-1053.91919	479.93384	1036.48645	-834.52515	294.70615	682.33655	-871.60480	323.51196	480.10611	-877.19116	375.47778	290.84546	-927.40387	370.68073	71.26408	-978.99988	407.74182	44.95980	-920.95996	213.86034	35.19467	-1217.80225	337.98209	675.30933	-1211.15967	321.21432	478.42490	-1193.65295	463.87482	366.11505	-1145.35120	591.03162	226.40450	-1075.82251	631.31946	197.70045	-1199.75916	537.31342	84.86879	-1006.10034	383.83652	1810.96741	-3360.38940	2845.20239	1033.82471 
